<?xml version="1.0" encoding="UTF-8" standalone="no"?>
<!DOCTYPE svg PUBLIC "-//W3C//DTD SVG 1.1//EN" "http://www.w3.org/Graphics/SVG/1.1/DTD/svg11.dtd">
<svg width="100%" height="100%" viewBox="0 0 500 500" version="1.1" xmlns="http://www.w3.org/2000/svg" xmlns:xlink="http://www.w3.org/1999/xlink" xml:space="preserve" style="fill-rule:evenodd;clip-rule:evenodd;stroke-linejoin:round;stroke-miterlimit:1.41421;">
    <g transform="matrix(2.2478,0,0,-2.2478,-467.326,35892.4)">
        <path d="M305.03,15894.5C298.42,15894 292.82,15888.4 292.82,15880.6L292.82,15843.3C292.82,15841.9 291.82,15840.8 290.36,15840.8L278.71,15840.8C253.49,15840.8 255.73,15873 277.2,15873L290.08,15873L290.08,15882.4L276.73,15882.4C268.18,15882.4 261.84,15879.2 257.56,15874.4C253.28,15869.7 251.13,15863.3 251.12,15856.9C251.11,15850.5 253.23,15844.1 257.61,15839.4C261.99,15834.6 268.61,15831.4 277.68,15831.4L299.65,15831.4C301.1,15831.4 302.3,15832.7 302.3,15834.1L302.3,15879.6C302.29,15881.9 303.61,15883.8 305.33,15884.3C307.05,15884.8 309.07,15884.1 310.25,15882.4L310.3,15882.4C316.55,15872.2 341.36,15832.4 341.4,15832.3C342.08,15831.3 342.89,15831.2 343.48,15831.4C344.07,15831.6 344.67,15832.2 344.66,15833.8L344.66,15879.6C344.65,15881.9 345.97,15883.8 347.69,15884.3C349.41,15884.8 351.38,15884.1 352.57,15882.4L352.57,15882.4L352.66,15882.4C358.91,15872.2 383.72,15832.4 383.76,15832.3C384.43,15831.3 385.22,15831.1 385.84,15831.4C386.46,15831.6 387.08,15832.1 387.07,15833.7L387.07,15894.2L377.65,15894.2L377.65,15858.9C377.65,15858.9 372.03,15868.5 362.41,15885C352.98,15901.2 335.19,15894.5 335.19,15880.6L335.19,15858.9C335.19,15858.9 329.67,15868.5 320.04,15885C315.92,15892.1 310.17,15894.8 305.03,15894.5L305.03,15894.5ZM278.38,15894.2C225.95,15894.2 226.46,15819.5 279.09,15819.5L299.68,15819.5C308.53,15819.5 314.18,15824.7 314.17,15834.4L314.17,15853.3C314.17,15853.3 325.73,15834.2 330.27,15826.7C337.97,15814 356.59,15816.5 356.54,15832.4L356.54,15853.3C356.54,15853.3 368.06,15834.2 372.59,15826.7C380.29,15814 398.96,15816.5 398.91,15832.4L398.91,15894.2L389.49,15894.2L389.49,15833.7C389.5,15831.4 388.28,15829.7 386.6,15829.1C384.92,15828.6 382.99,15829.3 381.82,15830.9L381.77,15830.9L381.77,15831C381.77,15831 356.95,15870.7 350.62,15881.1C350.6,15881.1 350.59,15881.1 350.57,15881.1C350.56,15881.1 350.58,15881.1 350.57,15881.1C349.92,15882 349.08,15882.2 348.39,15882C347.68,15881.8 347.01,15881.1 347.02,15879.6L347.02,15833.8C347.03,15831.5 345.84,15829.6 344.18,15829.1C342.52,15828.5 340.61,15829.3 339.45,15830.9L339.45,15831L339.4,15831C339.4,15831 314.56,15870.8 308.25,15881.1C307.59,15882 306.74,15882.2 306.03,15882C305.32,15881.8 304.65,15881.2 304.66,15879.7L304.66,15879.6L304.66,15834.1C304.66,15831.4 302.39,15829.1 299.64,15829.1L277.67,15829.1C268.03,15829.1 260.72,15832.5 255.89,15837.8C251.06,15843 248.68,15850 248.69,15856.9C248.7,15863.8 251.08,15870.8 255.79,15876.1C260.5,15881.3 267.57,15884.8 276.71,15884.8L290.06,15884.8L290.06,15894.2L278.37,15894.2L278.38,15894.2Z" style="fill:black;fill-rule:nonzero;"/>
    </g>
</svg>
