<?xml version="1.0" encoding="UTF-8" standalone="no"?>
<!DOCTYPE svg PUBLIC "-//W3C//DTD SVG 1.1//EN" "http://www.w3.org/Graphics/SVG/1.1/DTD/svg11.dtd">
<svg width="100%" height="100%" viewBox="0 0 500 500" version="1.1" xmlns="http://www.w3.org/2000/svg" xmlns:xlink="http://www.w3.org/1999/xlink" xml:space="preserve" style="fill-rule:evenodd;clip-rule:evenodd;stroke-linejoin:round;stroke-miterlimit:1.41421;">
    <g transform="matrix(2.708,0,0,2.708,-73.4542,-37.6789)">
        <path d="M57.584,107.736C57.584,107.736 55.297,107.888 55.297,105.144C55.297,103.162 57.202,102.933 57.507,102.933L63.987,102.933C64.292,102.933 66.198,103.162 66.198,105.144C66.198,107.888 63.911,107.736 63.911,107.736L57.584,107.736Z" style="fill:black;"/>
        <path d="M158.664,108.117C158.664,108.117 156.379,108.269 156.379,105.449C156.379,103.467 158.283,103.238 158.588,103.238L165.145,103.238C165.526,103.238 167.432,103.467 167.432,105.449C167.432,108.269 165.145,108.117 165.145,108.117L158.664,108.117Z" style="fill:black;"/>
        <path d="M48.97,94.396L48.97,117.037C48.97,117.037 49.58,119.324 51.638,119.324C51.638,119.324 54.611,119.095 54.611,117.037C54.611,115.055 54.611,98.666 54.611,98.666L64.445,98.666C64.445,98.666 67.037,98.818 67.037,95.692C67.037,93.405 64.902,93.1 64.521,93.1C64.14,93.1 50.037,93.1 50.037,93.1C50.037,93.1 48.894,93.177 48.97,94.396Z" style="fill:black;"/>
        <path d="M74.736,114.75C74.736,114.75 72.449,114.979 72.449,112.234C72.449,110.175 74.355,110.023 74.736,110.023L78.548,110.023C78.929,110.023 80.835,110.175 80.835,112.234C80.835,114.978 78.548,114.75 78.548,114.75L74.736,114.75Z" style="fill:black;"/>
        <path d="M76.87,93.1C74.812,93.1 74.431,93.939 73.974,94.625C73.516,95.311 63.302,115.74 63.302,115.74C63.302,115.74 62.387,117.951 64.217,118.789C66.046,119.705 67.8,119.705 68.943,117.494C70.163,115.207 76.642,102.629 76.642,102.629L76.718,102.629C76.718,102.629 83.121,115.207 84.341,117.494C85.561,119.705 87.314,119.705 89.067,118.789C90.897,117.951 89.982,115.74 89.982,115.74C89.982,115.74 79.767,95.311 79.31,94.625C78.853,93.939 78.471,93.1 76.413,93.1L76.87,93.1Z" style="fill:black;"/>
        <path d="M101.34,119.172C94.174,119.172 88.305,113.301 88.305,106.211C88.305,99.047 94.175,93.253 101.34,93.253L126.497,93.253C126.497,93.253 128.86,93.634 128.936,95.921C129.012,97.979 127.334,98.895 126.573,98.895C125.735,98.895 120.628,98.971 120.628,98.971L120.399,116.961C120.399,116.961 120.475,119.324 117.653,119.324C114.909,119.324 114.528,117.189 114.528,117.189L114.757,99.046L101.874,99.046L101.341,99.122C97.378,99.122 94.099,102.323 94.099,106.288C94.099,110.251 97.378,113.528 101.341,113.528L102.103,113.604C104.847,113.758 107.134,113.604 107.134,113.604C107.134,113.604 110.032,113.452 109.954,116.502C109.878,119.246 107.21,119.246 107.21,119.246L103.095,119.246L101.34,119.172Z" style="fill:black;"/>
        <path d="M167.279,93.177L187.48,93.177C187.48,93.177 189.843,93.634 189.919,95.845C189.995,97.903 188.317,98.895 187.556,98.895C186.716,98.895 181.609,98.895 181.609,98.895L181.609,116.961C181.609,116.961 181.685,119.324 178.941,119.324C176.121,119.324 175.816,117.189 175.816,117.189L175.816,98.971L162.933,98.971L155.691,98.971C155.691,104.459 155.691,113.76 155.691,113.76L165.677,113.76C165.677,113.76 168.269,113.53 168.269,116.733C168.269,119.018 166.058,119.249 165.677,119.249C165.296,119.249 151.04,119.249 151.04,119.249C151.04,119.249 149.897,119.249 149.974,118.028L149.974,95.463C149.974,95.463 150.203,93.176 152.642,93.176L167.279,93.176L167.279,93.177Z" style="fill:black;"/>
        <path d="M131.223,105.145L130.459,104.536C130.459,104.536 128.479,103.698 128.783,99.352C129.012,96.456 130.613,94.854 131.908,93.939C133.205,93.1 134.576,93.177 134.576,93.177L144.41,93.177C144.41,93.177 146.773,93.406 146.773,96.073C146.773,98.59 144.181,98.894 144.181,98.894L135.49,98.894L135.185,98.894C135.185,98.894 134.956,98.97 134.728,99.351C134.423,99.884 134.576,100.494 135.109,100.798C135.566,101.105 139.836,104.001 139.836,104.001L140.598,104.458L146.698,108.804C146.698,108.804 147.917,109.87 147.917,112.767C147.917,115.664 146.165,117.646 144.868,118.484C143.573,119.324 142.2,119.324 142.2,119.324L130.995,119.324C130.995,119.324 128.708,119.017 128.708,116.428C128.708,113.912 131.224,113.606 131.224,113.606L140.753,113.606L141.134,113.53C141.134,113.53 141.363,113.53 141.591,113.149C141.896,112.54 141.667,112.006 141.21,111.702C140.752,111.318 131.223,105.145 131.223,105.145Z" style="fill:black;"/>
    </g>
</svg>
