<?xml version="1.0" encoding="UTF-8" standalone="no"?>
<!DOCTYPE svg PUBLIC "-//W3C//DTD SVG 1.1//EN" "http://www.w3.org/Graphics/SVG/1.1/DTD/svg11.dtd">
<svg width="100%" height="100%" viewBox="0 0 500 500" version="1.1" xmlns="http://www.w3.org/2000/svg" xmlns:xlink="http://www.w3.org/1999/xlink" xml:space="preserve" style="fill-rule:evenodd;clip-rule:evenodd;stroke-linejoin:round;stroke-miterlimit:1.41421;">
    <g transform="matrix(0.238223,0,0,0.238223,92.2993,95.6443)">
        <path d="M397.6,50.1C534.7,-7.8 692,-15.6 834.4,27.1C978.4,70 1105.6,165 1188.1,289.8C1271.5,414.3 1308.5,568.1 1292.3,716.7C1276.1,878.3 1195.2,1031.9 1071.8,1138C961.6,1234.5 817.5,1290.3 670.9,1295.9L625.5,1295.9C525.8,1291.7 427,1265.7 339.4,1217.8C199.4,1142 89.2,1013.4 36.8,863.6C-13.5,722.1 -12.2,563.3 40.2,422.6C101.1,256.7 233.6,118.1 397.6,50.1M329.1,374.6C329.7,465.6 326.1,602.7 329.1,693.5C356.3,722 393,756.1 420.2,784.6C392.2,784.7 357,784.6 329.1,784.6C329,870.5 329.2,926.5 329.1,1012.4C509.9,1012.6 695.1,1012.3 875.9,1012.4C902.8,985.6 941.8,949.4 967,921.3C967.5,829.9 967.1,693.8 967,602.4C937.5,574.1 905.1,539.7 875.9,511.3C905.1,511.2 937.8,511.4 967,511.3C967.1,425.5 966.9,369.3 967,283.5C786.2,283.4 601,283.6 420.2,283.5C392.8,310.5 356.6,347.7 329.1,374.6Z" style="fill:black;fill-rule:nonzero;"/>
        <path d="M511.3,785L589.8,648L511.3,511L784.7,511L711.3,648L784.7,785L511.3,785Z" style="fill:black;fill-rule:nonzero;"/>
    </g>
</svg>
