<?xml version="1.0" encoding="UTF-8" standalone="no"?>
<!DOCTYPE svg PUBLIC "-//W3C//DTD SVG 1.1//EN" "http://www.w3.org/Graphics/SVG/1.1/DTD/svg11.dtd">
<svg width="100%" height="100%" viewBox="0 0 500 500" version="1.1" xmlns="http://www.w3.org/2000/svg" xmlns:xlink="http://www.w3.org/1999/xlink" xml:space="preserve" style="fill-rule:evenodd;clip-rule:evenodd;stroke-linecap:round;stroke-linejoin:round;stroke-miterlimit:1.41421;">
    <g transform="matrix(0.284405,0,0,0.284405,-105.507,-97.0736)">
        <path d="M952.881,1593.53C475.012,1160.79 692.308,800.098 952.881,781.668C1037.82,775.661 1163.15,789.049 1250,960.161C1336.85,789.049 1462.18,775.661 1547.12,781.668C1807.69,800.098 2024.99,1160.79 1547.12,1593.53L1546.41,1593.53L1546.41,1387.92L1537.21,1387.92L1537.21,1374.63L1528.08,1374.63L1528.08,1362.42L1517.92,1362.42L1517.92,1345.11L1500.58,1345.11L1500.58,1362.42L1490.42,1362.42L1490.42,1374.63L1481.29,1374.63L1481.29,1387.92L1472.09,1387.92L1472.09,1573.42L1444.38,1573.42L1444.38,1543.47L1433.46,1543.47L1433.46,1535.29L1415.73,1535.29L1415.73,1473.93L1367.99,1473.93L1351.29,1490.63L1351.29,1563.93L1339.35,1563.93L1339.35,1551.66L1321.62,1551.66L1321.62,1543.47L1300.48,1543.47L1300.48,1551.66L1288.2,1551.66L1288.2,1595.62L1280.7,1595.62L1280.7,1602.75L1274.61,1602.75L1274.61,1647.14L1256.83,1647.14L1256.83,1563.93L1242.59,1563.93L1242.59,1551.66L1230.28,1551.66L1230.28,1563.93L1216.64,1563.93L1216.64,1585.08L1189.36,1585.08L1189.36,1602.75L1170.27,1602.75L1170.27,1573.42L1149.81,1573.42L1149.81,1585.08L1140.23,1585.08L1140.23,1563.93L1123.18,1563.93L1123.18,1551.66L1109.54,1551.66L1109.54,1563.93L1097.27,1563.93L1097.27,1660.12L1086.36,1660.12L1086.36,1447.34L1068.59,1447.34L1068.59,1405L1061.78,1405L1061.78,1447.34L1042.68,1447.34L1042.68,1630.09L1018.86,1630.09L1018.86,1398.21L1010,1398.21L1010,1387.92L1001.14,1379.07L1001.14,1362.42L970.44,1362.42L970.44,1379.76L961.588,1388.61L961.588,1398.89L952.722,1398.89L952.722,1593.53" style="fill:black;stroke-width:2.64px;stroke:black;"/>
    </g>
</svg>
