<?xml version="1.0" encoding="UTF-8" standalone="no"?>
<!DOCTYPE svg PUBLIC "-//W3C//DTD SVG 1.1//EN" "http://www.w3.org/Graphics/SVG/1.1/DTD/svg11.dtd">
<svg width="100%" height="100%" viewBox="0 0 500 500" version="1.1" xmlns="http://www.w3.org/2000/svg" xmlns:xlink="http://www.w3.org/1999/xlink" xml:space="preserve" style="fill-rule:evenodd;clip-rule:evenodd;stroke-linejoin:round;stroke-miterlimit:1.41421;">
    <g transform="matrix(0.647359,0,0,0.647359,120.528,120.528)">
        <g id="Layer1">
            <path d="M109.827,180.172C49.137,180.172 0.018,229.388 0,290.075C0.016,350.783 49.135,400 109.827,400C170.465,400 219.517,350.781 219.545,290.075C219.545,259.07 219.538,251.509 219.538,251.509L180.326,251.509C180.326,251.509 180.326,259.096 180.326,290.075C180.29,309.629 172.445,327.139 159.661,339.973C146.843,352.782 129.363,360.66 109.827,360.66C90.27,360.66 72.81,352.779 59.958,339.973C47.17,327.139 39.326,309.628 39.298,290.075C39.325,270.54 47.17,253.032 59.958,240.198C72.81,227.388 90.27,219.531 109.827,219.509C145.901,219.509 252.662,219.509 290.189,219.509C350.858,219.509 399.981,170.632 400,109.925C399.981,49.194 350.858,0.021 290.189,0C229.54,0.021 180.403,49.194 180.38,109.925C180.38,140.768 180.353,148.172 180.353,148.172L219.545,148.172C219.545,148.172 219.545,140.768 219.545,109.925C219.579,90.391 227.537,72.88 240.355,60.025C253.162,47.239 270.642,39.36 290.19,39.36C309.723,39.36 327.242,47.238 340.058,60.048C352.83,72.881 360.684,90.391 360.684,109.925C360.684,129.502 352.83,146.991 340.046,159.8C327.241,172.61 309.723,180.15 290.187,180.172L109.827,180.172L109.827,180.172Z" style="fill:white;fill-rule:nonzero;"/>
        </g>
    </g>
</svg>
