<?xml version="1.0" encoding="UTF-8" standalone="no"?>
<!DOCTYPE svg PUBLIC "-//W3C//DTD SVG 1.1//EN" "http://www.w3.org/Graphics/SVG/1.1/DTD/svg11.dtd">
<svg width="100%" height="100%" viewBox="0 0 256 256" version="1.1" xmlns="http://www.w3.org/2000/svg" xmlns:xlink="http://www.w3.org/1999/xlink" xml:space="preserve" style="fill-rule:evenodd;clip-rule:evenodd;stroke-linecap:square;stroke-linejoin:round;stroke-miterlimit:1.41421;">
    <g transform="matrix(1,0,0,1,-0.0865584,17.3679)">
        <g transform="matrix(3.22326,0,0,3.22326,-8675.35,1741.37)">
            <g transform="matrix(1.118,0,0,1.118,-313.318,65.314)">
                <path d="M2753.51,-510.949L2738.24,-495.673L2735.3,-498.615L2747.63,-510.949L2735.3,-523.282L2738.24,-526.224L2753.51,-510.949Z" style="fill:black;"/>
            </g>
            <g transform="matrix(-1.118,0,0,1.118,5775.75,65.314)">
                <path d="M2735.3,-523.282L2747.63,-510.949L2735.3,-498.615L2738.24,-495.673L2753.51,-510.949L2738.24,-526.224L2735.3,-523.282Z" style="fill:black;"/>
            </g>
        </g>
        <g transform="matrix(2.86622,-0.768002,0.768002,2.86622,-7337.16,3668.98)">
            <path d="M2728.11,-489.863L2752.8,-524.486" style="fill:none;stroke-width:5.06px;stroke:black;"/>
        </g>
    </g>
</svg>
