<?xml version="1.0" encoding="UTF-8" standalone="no"?>
<!DOCTYPE svg PUBLIC "-//W3C//DTD SVG 1.1//EN" "http://www.w3.org/Graphics/SVG/1.1/DTD/svg11.dtd">
<svg width="100%" height="100%" viewBox="0 0 500 500" version="1.1" xmlns="http://www.w3.org/2000/svg" xmlns:xlink="http://www.w3.org/1999/xlink" xml:space="preserve" style="fill-rule:evenodd;clip-rule:evenodd;stroke-linejoin:round;stroke-miterlimit:1.41421;">
    <g transform="matrix(0.492494,0,0,0.492494,125.892,125.891)">
        <g id="Layer1">
            <g>
                <path d="M252,45.471C319.265,45.471 327.233,45.728 353.797,46.94C378.359,48.06 391.698,52.164 400.575,55.614C412.334,60.184 420.726,65.643 429.541,74.458C438.357,83.274 443.816,91.666 448.386,103.425C451.836,112.302 455.94,125.641 457.06,150.203C458.272,176.767 458.529,184.735 458.529,252C458.529,319.266 458.272,327.234 457.06,353.798C455.94,378.36 451.836,391.699 448.386,400.576C443.816,412.335 438.357,420.727 429.542,429.542C420.726,438.358 412.334,443.817 400.575,448.387C391.698,451.837 378.359,455.941 353.797,457.061C327.237,458.273 319.27,458.53 252,458.53C184.729,458.53 176.763,458.273 150.202,457.061C125.64,455.941 112.301,451.837 103.424,448.387C91.665,443.817 83.273,438.358 74.458,429.542C65.643,420.727 60.183,412.335 55.613,400.576C52.163,391.699 48.059,378.36 46.939,353.798C45.727,327.234 45.47,319.266 45.47,252C45.47,184.735 45.727,176.767 46.939,150.203C48.059,125.641 52.163,112.302 55.613,103.425C60.183,91.666 65.642,83.274 74.458,74.459C83.273,65.643 91.665,60.184 103.424,55.614C112.301,52.164 125.64,48.06 150.202,46.94C176.766,45.728 184.734,45.471 252,45.471ZM252,0.08C183.582,0.08 175.003,0.37 148.133,1.596C121.319,2.819 103.006,7.078 86.982,13.305C70.416,19.743 56.367,28.357 42.361,42.362C28.356,56.368 19.742,70.417 13.305,86.983C7.077,103.007 2.818,121.32 1.595,148.134C0.369,175.004 0.079,183.583 0.079,252C0.079,320.418 0.369,328.997 1.595,355.867C2.818,382.681 7.077,400.994 13.305,417.018C19.742,433.584 28.356,447.633 42.361,461.639C56.367,475.644 70.416,484.258 86.982,490.695C103.006,496.923 121.319,501.182 148.133,502.405C175.003,503.631 183.582,503.921 252,503.921C320.417,503.921 328.996,503.631 355.866,502.405C382.68,501.182 400.993,496.923 417.017,490.695C433.583,484.258 447.632,475.644 461.638,461.639C475.643,447.633 484.257,433.584 490.695,417.018C496.922,400.994 501.181,382.681 502.404,355.867C503.63,328.997 503.92,320.418 503.92,252C503.92,183.583 503.63,175.004 502.404,148.134C501.181,121.32 496.922,103.007 490.695,86.983C484.257,70.417 475.643,56.368 461.638,42.362C447.632,28.357 433.583,19.743 417.017,13.305C400.993,7.078 382.68,2.819 355.866,1.596C328.996,0.37 320.417,0.08 252,0.08Z" style="fill:white;fill-rule:nonzero;"/>
                <path d="M252,122.636C180.553,122.636 122.635,180.554 122.635,252C122.635,323.447 180.553,381.365 252,381.365C323.446,381.365 381.364,323.447 381.364,252C381.364,180.554 323.446,122.636 252,122.636ZM252,335.974C205.622,335.974 168.026,298.378 168.026,252C168.026,205.623 205.622,168.027 252,168.027C298.377,168.027 335.973,205.623 335.973,252C335.973,298.378 298.377,335.974 252,335.974Z" style="fill:white;fill-rule:nonzero;"/>
                <path d="M416.706,117.525C416.706,134.22 403.171,147.755 386.475,147.755C369.78,147.755 356.245,134.22 356.245,117.525C356.245,100.829 369.78,87.294 386.475,87.294C403.171,87.294 416.706,100.829 416.706,117.525Z" style="fill:white;fill-rule:nonzero;"/>
            </g>
        </g>
    </g>
</svg>
