<?xml version="1.0" encoding="UTF-8" standalone="no"?>
<!DOCTYPE svg PUBLIC "-//W3C//DTD SVG 1.1//EN" "http://www.w3.org/Graphics/SVG/1.1/DTD/svg11.dtd">
<svg width="100%" height="100%" viewBox="0 0 500 500" version="1.1" xmlns="http://www.w3.org/2000/svg" xmlns:xlink="http://www.w3.org/1999/xlink" xml:space="preserve" style="fill-rule:evenodd;clip-rule:evenodd;stroke-linejoin:round;stroke-miterlimit:1.41421;">
    <g id="Layer1">
        <g transform="matrix(2.25491,0,0,2.25491,89.4998,89.3002)">
            <path d="M122.708,122.707L101.364,122.707L101.364,89.288C101.364,81.319 101.218,71.067 90.264,71.067C79.152,71.067 77.446,79.748 77.446,88.711L77.446,122.707L56.106,122.707L56.106,53.986L76.59,53.986L76.59,63.376L76.877,63.376C79.728,57.973 86.696,52.277 97.086,52.277C118.715,52.277 122.708,66.512 122.708,85.013L122.708,122.707Z" style="fill:white;"/>
        </g>
        <g transform="matrix(2.25491,0,0,2.25491,89.4998,89.3002)">
            <path d="M32.034,44.592C25.188,44.592 19.648,39.042 19.648,32.206C19.648,25.375 25.188,19.826 32.034,19.826C38.863,19.826 44.412,25.375 44.412,32.206C44.412,39.042 38.863,44.592 32.034,44.592Z" style="fill:white;"/>
        </g>
        <g transform="matrix(2.25491,0,0,2.25491,89.4998,89.3002)">
            <rect x="21.349" y="53.986" width="21.361" height="68.721" style="fill:white;"/>
        </g>
    </g>
</svg>
