<?xml version="1.0" encoding="UTF-8" standalone="no"?>
<!DOCTYPE svg PUBLIC "-//W3C//DTD SVG 1.1//EN" "http://www.w3.org/Graphics/SVG/1.1/DTD/svg11.dtd">
<svg width="100%" height="100%" viewBox="0 0 500 500" version="1.1" xmlns="http://www.w3.org/2000/svg" xmlns:xlink="http://www.w3.org/1999/xlink" xml:space="preserve" style="fill-rule:evenodd;clip-rule:evenodd;stroke-linejoin:round;stroke-miterlimit:1.41421;">
    <g transform="matrix(4.05731,0,0,4.05731,61.3653,168.077)">
        <g id="Layer1">
            <path d="M1.053,24.152C0.859,24.152 0.705,24.302 0.68,24.516L0,29.681L0.68,34.757C0.705,34.971 0.859,35.12 1.053,35.12C1.241,35.12 1.394,34.972 1.424,34.759L1.424,34.758L1.424,34.759L2.23,29.681L1.424,24.515C1.395,24.302 1.24,24.152 1.053,24.152ZM4.877,21.33C4.845,21.108 4.686,20.955 4.49,20.955C4.293,20.955 4.13,21.113 4.103,21.33C4.103,21.332 3.189,29.681 3.189,29.681L4.103,37.847C4.129,38.066 4.292,38.224 4.49,38.224C4.685,38.224 4.844,38.07 4.876,37.849L5.916,29.681L4.877,21.33ZM19.281,13.627C18.906,13.627 18.596,13.934 18.578,14.324L17.85,29.688L18.578,39.617C18.597,40.005 18.906,40.311 19.281,40.311C19.654,40.311 19.963,40.004 19.985,39.615L19.985,39.618L20.808,29.688L19.985,14.324C19.963,13.934 19.654,13.627 19.281,13.627ZM11.826,18.967C11.538,18.967 11.303,19.197 11.28,19.504L10.46,29.684L11.28,39.533C11.302,39.838 11.538,40.068 11.826,40.068C12.111,40.068 12.346,39.838 12.371,39.533L13.303,29.684L12.371,19.502C12.346,19.197 12.111,18.967 11.826,18.967ZM26.857,40.31C27.322,40.31 27.7,39.935 27.719,39.455L28.433,29.693L27.72,9.238C27.701,8.758 27.323,8.383 26.858,8.383C26.389,8.383 26.01,8.759 25.995,9.239C25.995,9.24 25.362,29.692 25.362,29.692L25.995,39.458C26.01,39.934 26.389,40.31 26.857,40.31ZM42.367,40.356C43.007,40.356 43.535,39.829 43.547,39.181L43.547,39.188L43.547,39.181L44.045,29.699L43.547,6.075C43.536,5.428 43.007,4.9 42.367,4.9C41.726,4.9 41.197,5.427 41.187,6.076L40.742,29.691C40.742,29.706 41.187,39.187 41.187,39.187C41.197,39.829 41.727,40.356 42.367,40.356ZM34.553,40.319C35.11,40.319 35.559,39.872 35.574,39.302L35.574,39.309L36.18,29.695L35.573,9.092C35.558,8.522 35.109,8.076 34.552,8.076C33.991,8.076 33.542,8.522 33.53,9.092L32.991,29.696L33.531,39.308C33.543,39.872 33.992,40.319 34.553,40.319ZM15.539,40.229C15.87,40.229 16.138,39.964 16.163,39.615L17.041,29.684L16.163,20.237C16.139,19.888 15.871,19.625 15.539,19.625C15.203,19.625 14.935,19.89 14.914,20.241L14.141,29.684L14.914,39.614C14.936,39.964 15.203,40.229 15.539,40.229ZM8.143,39.685C8.385,39.685 8.581,39.494 8.609,39.23L9.595,29.682L8.61,19.774C8.581,19.509 8.385,19.318 8.143,19.318C7.898,19.318 7.702,19.51 7.677,19.774C7.677,19.775 6.809,29.682 6.809,29.682L7.677,39.228C7.701,39.493 7.897,39.685 8.143,39.685ZM38.445,8.749C37.84,8.749 37.355,9.23 37.343,9.846L36.851,29.697L37.343,39.249C37.355,39.857 37.839,40.338 38.445,40.338C39.049,40.338 39.531,39.858 39.545,39.242L39.545,39.25L40.097,29.698L39.545,9.844C39.531,9.23 39.049,8.749 38.445,8.749ZM23.055,40.33C23.473,40.33 23.818,39.989 23.838,39.554L24.606,29.691L23.838,10.813C23.817,10.377 23.473,10.037 23.055,10.037C22.633,10.037 22.289,10.378 22.271,10.813C22.271,10.814 21.591,29.691 21.591,29.691L22.272,39.558C22.289,39.989 22.633,40.33 23.055,40.33ZM31.631,39.399L31.631,39.394L32.291,29.694L31.631,8.55C31.615,8.025 31.201,7.613 30.69,7.613C30.176,7.613 29.762,8.024 29.748,8.55L29.162,29.693L29.749,39.398C29.763,39.918 30.177,40.329 30.69,40.329C31.202,40.329 31.614,39.918 31.631,39.395L31.631,39.399ZM81.549,17.506C79.982,17.506 78.487,17.823 77.125,18.394C76.215,8.086 67.571,0 57.027,0C54.447,0 51.932,0.508 49.711,1.367C48.848,1.701 48.618,2.045 48.61,2.712L48.61,39.012C48.619,39.712 49.162,40.295 49.845,40.364C49.874,40.367 81.344,40.383 81.548,40.383C87.864,40.383 92.985,35.262 92.985,28.945C92.985,22.628 87.865,17.506 81.549,17.506ZM46.272,2.68C45.585,2.68 45.021,3.244 45.011,3.937L44.495,29.702L45.012,39.053C45.021,39.736 45.585,40.299 46.272,40.299C46.957,40.299 47.521,39.736 47.531,39.043L47.531,39.054L48.092,29.702L47.531,3.935C47.521,3.244 46.957,2.68 46.272,2.68Z" style="fill:white;fill-rule:nonzero;stroke-width:0.25px;stroke:white;"/>
        </g>
    </g>
</svg>
